<svg width="122" height="122" viewBox="0 0 122 122" fill="none" xmlns="http://www.w3.org/2000/svg">
<path fill-rule="evenodd" clip-rule="evenodd" d="M1.69444 3.38889C2.6302 3.38889 3.38889 2.6302 3.38889 1.69444C3.38889 0.758687 2.6302 0 1.69444 0C0.758687 0 0 0.758687 0 1.69444C0 2.6302 0.758687 3.38889 1.69444 3.38889ZM18.6389 3.38889C19.5746 3.38889 20.3333 2.6302 20.3333 1.69444C20.3333 0.758687 19.5746 0 18.6389 0C17.7031 0 16.9444 0.758687 16.9444 1.69444C16.9444 2.6302 17.7031 3.38889 18.6389 3.38889ZM37.2778 1.69444C37.2778 2.6302 36.5191 3.38889 35.5833 3.38889C34.6476 3.38889 33.8889 2.6302 33.8889 1.69444C33.8889 0.758687 34.6476 0 35.5833 0C36.5191 0 37.2778 0.758687 37.2778 1.69444ZM52.5278 3.38889C53.4635 3.38889 54.2222 2.6302 54.2222 1.69444C54.2222 0.758687 53.4635 0 52.5278 0C51.592 0 50.8333 0.758687 50.8333 1.69444C50.8333 2.6302 51.592 3.38889 52.5278 3.38889ZM71.1667 1.69444C71.1667 2.6302 70.408 3.38889 69.4722 3.38889C68.5365 3.38889 67.7778 2.6302 67.7778 1.69444C67.7778 0.758687 68.5365 0 69.4722 0C70.408 0 71.1667 0.758687 71.1667 1.69444ZM86.4167 3.38889C87.3524 3.38889 88.1111 2.6302 88.1111 1.69444C88.1111 0.758687 87.3524 0 86.4167 0C85.4809 0 84.7222 0.758687 84.7222 1.69444C84.7222 2.6302 85.4809 3.38889 86.4167 3.38889ZM105.056 1.69444C105.056 2.6302 104.297 3.38889 103.361 3.38889C102.425 3.38889 101.667 2.6302 101.667 1.69444C101.667 0.758687 102.425 0 103.361 0C104.297 0 105.056 0.758687 105.056 1.69444ZM120.306 3.38889C121.241 3.38889 122 2.6302 122 1.69444C122 0.758687 121.241 0 120.306 0C119.37 0 118.611 0.758687 118.611 1.69444C118.611 2.6302 119.37 3.38889 120.306 3.38889ZM3.38889 18.6389C3.38889 19.5746 2.6302 20.3333 1.69444 20.3333C0.758687 20.3333 0 19.5746 0 18.6389C0 17.7031 0.758687 16.9444 1.69444 16.9444C2.6302 16.9444 3.38889 17.7031 3.38889 18.6389ZM18.6389 20.3333C19.5746 20.3333 20.3333 19.5746 20.3333 18.6389C20.3333 17.7031 19.5746 16.9444 18.6389 16.9444C17.7031 16.9444 16.9444 17.7031 16.9444 18.6389C16.9444 19.5746 17.7031 20.3333 18.6389 20.3333ZM37.2778 18.6389C37.2778 19.5746 36.5191 20.3333 35.5833 20.3333C34.6476 20.3333 33.8889 19.5746 33.8889 18.6389C33.8889 17.7031 34.6476 16.9444 35.5833 16.9444C36.5191 16.9444 37.2778 17.7031 37.2778 18.6389ZM52.5278 20.3333C53.4635 20.3333 54.2222 19.5746 54.2222 18.6389C54.2222 17.7031 53.4635 16.9444 52.5278 16.9444C51.592 16.9444 50.8333 17.7031 50.8333 18.6389C50.8333 19.5746 51.592 20.3333 52.5278 20.3333ZM71.1667 18.6389C71.1667 19.5746 70.408 20.3333 69.4722 20.3333C68.5365 20.3333 67.7778 19.5746 67.7778 18.6389C67.7778 17.7031 68.5365 16.9444 69.4722 16.9444C70.408 16.9444 71.1667 17.7031 71.1667 18.6389ZM86.4167 20.3333C87.3524 20.3333 88.1111 19.5746 88.1111 18.6389C88.1111 17.7031 87.3524 16.9444 86.4167 16.9444C85.4809 16.9444 84.7222 17.7031 84.7222 18.6389C84.7222 19.5746 85.4809 20.3333 86.4167 20.3333ZM105.056 18.6389C105.056 19.5746 104.297 20.3333 103.361 20.3333C102.425 20.3333 101.667 19.5746 101.667 18.6389C101.667 17.7031 102.425 16.9444 103.361 16.9444C104.297 16.9444 105.056 17.7031 105.056 18.6389ZM120.306 20.3333C121.241 20.3333 122 19.5746 122 18.6389C122 17.7031 121.241 16.9444 120.306 16.9444C119.37 16.9444 118.611 17.7031 118.611 18.6389C118.611 19.5746 119.37 20.3333 120.306 20.3333ZM3.38889 35.5833C3.38889 36.5191 2.6302 37.2778 1.69444 37.2778C0.758687 37.2778 0 36.5191 0 35.5833C0 34.6476 0.758687 33.8889 1.69444 33.8889C2.6302 33.8889 3.38889 34.6476 3.38889 35.5833ZM18.6389 37.2778C19.5746 37.2778 20.3333 36.5191 20.3333 35.5833C20.3333 34.6476 19.5746 33.8889 18.6389 33.8889C17.7031 33.8889 16.9444 34.6476 16.9444 35.5833C16.9444 36.5191 17.7031 37.2778 18.6389 37.2778ZM37.2778 35.5833C37.2778 36.5191 36.5191 37.2778 35.5833 37.2778C34.6476 37.2778 33.8889 36.5191 33.8889 35.5833C33.8889 34.6476 34.6476 33.8889 35.5833 33.8889C36.5191 33.8889 37.2778 34.6476 37.2778 35.5833ZM52.5278 37.2778C53.4635 37.2778 54.2222 36.5191 54.2222 35.5833C54.2222 34.6476 53.4635 33.8889 52.5278 33.8889C51.592 33.8889 50.8333 34.6476 50.8333 35.5833C50.8333 36.5191 51.592 37.2778 52.5278 37.2778ZM71.1667 35.5833C71.1667 36.5191 70.408 37.2778 69.4722 37.2778C68.5365 37.2778 67.7778 36.5191 67.7778 35.5833C67.7778 34.6476 68.5365 33.8889 69.4722 33.8889C70.408 33.8889 71.1667 34.6476 71.1667 35.5833ZM86.4167 37.2778C87.3524 37.2778 88.1111 36.5191 88.1111 35.5833C88.1111 34.6476 87.3524 33.8889 86.4167 33.8889C85.4809 33.8889 84.7222 34.6476 84.7222 35.5833C84.7222 36.5191 85.4809 37.2778 86.4167 37.2778ZM105.056 35.5833C105.056 36.5191 104.297 37.2778 103.361 37.2778C102.425 37.2778 101.667 36.5191 101.667 35.5833C101.667 34.6476 102.425 33.8889 103.361 33.8889C104.297 33.8889 105.056 34.6476 105.056 35.5833ZM120.306 37.2778C121.241 37.2778 122 36.5191 122 35.5833C122 34.6476 121.241 33.8889 120.306 33.8889C119.37 33.8889 118.611 34.6476 118.611 35.5833C118.611 36.5191 119.37 37.2778 120.306 37.2778ZM3.38889 52.5278C3.38889 53.4635 2.6302 54.2222 1.69444 54.2222C0.758687 54.2222 0 53.4635 0 52.5278C0 51.592 0.758687 50.8333 1.69444 50.8333C2.6302 50.8333 3.38889 51.592 3.38889 52.5278ZM18.6389 54.2222C19.5746 54.2222 20.3333 53.4635 20.3333 52.5278C20.3333 51.592 19.5746 50.8333 18.6389 50.8333C17.7031 50.8333 16.9444 51.592 16.9444 52.5278C16.9444 53.4635 17.7031 54.2222 18.6389 54.2222ZM37.2778 52.5278C37.2778 53.4635 36.5191 54.2222 35.5833 54.2222C34.6476 54.2222 33.8889 53.4635 33.8889 52.5278C33.8889 51.592 34.6476 50.8333 35.5833 50.8333C36.5191 50.8333 37.2778 51.592 37.2778 52.5278ZM52.5278 54.2222C53.4635 54.2222 54.2222 53.4635 54.2222 52.5278C54.2222 51.592 53.4635 50.8333 52.5278 50.8333C51.592 50.8333 50.8333 51.592 50.8333 52.5278C50.8333 53.4635 51.592 54.2222 52.5278 54.2222ZM71.1667 52.5278C71.1667 53.4635 70.408 54.2222 69.4722 54.2222C68.5365 54.2222 67.7778 53.4635 67.7778 52.5278C67.7778 51.592 68.5365 50.8333 69.4722 50.8333C70.408 50.8333 71.1667 51.592 71.1667 52.5278ZM86.4167 54.2222C87.3524 54.2222 88.1111 53.4635 88.1111 52.5278C88.1111 51.592 87.3524 50.8333 86.4167 50.8333C85.4809 50.8333 84.7222 51.592 84.7222 52.5278C84.7222 53.4635 85.4809 54.2222 86.4167 54.2222ZM105.056 52.5278C105.056 53.4635 104.297 54.2222 103.361 54.2222C102.425 54.2222 101.667 53.4635 101.667 52.5278C101.667 51.592 102.425 50.8333 103.361 50.8333C104.297 50.8333 105.056 51.592 105.056 52.5278ZM120.306 54.2222C121.241 54.2222 122 53.4635 122 52.5278C122 51.592 121.241 50.8333 120.306 50.8333C119.37 50.8333 118.611 51.592 118.611 52.5278C118.611 53.4635 119.37 54.2222 120.306 54.2222ZM3.38889 69.4722C3.38889 70.408 2.6302 71.1667 1.69444 71.1667C0.758687 71.1667 0 70.408 0 69.4722C0 68.5365 0.758687 67.7778 1.69444 67.7778C2.6302 67.7778 3.38889 68.5365 3.38889 69.4722ZM18.6389 71.1667C19.5746 71.1667 20.3333 70.408 20.3333 69.4722C20.3333 68.5365 19.5746 67.7778 18.6389 67.7778C17.7031 67.7778 16.9444 68.5365 16.9444 69.4722C16.9444 70.408 17.7031 71.1667 18.6389 71.1667ZM37.2778 69.4722C37.2778 70.408 36.5191 71.1667 35.5833 71.1667C34.6476 71.1667 33.8889 70.408 33.8889 69.4722C33.8889 68.5365 34.6476 67.7778 35.5833 67.7778C36.5191 67.7778 37.2778 68.5365 37.2778 69.4722ZM52.5278 71.1667C53.4635 71.1667 54.2222 70.408 54.2222 69.4722C54.2222 68.5365 53.4635 67.7778 52.5278 67.7778C51.592 67.7778 50.8333 68.5365 50.8333 69.4722C50.8333 70.408 51.592 71.1667 52.5278 71.1667ZM71.1667 69.4722C71.1667 70.408 70.408 71.1667 69.4722 71.1667C68.5365 71.1667 67.7778 70.408 67.7778 69.4722C67.7778 68.5365 68.5365 67.7778 69.4722 67.7778C70.408 67.7778 71.1667 68.5365 71.1667 69.4722ZM86.4167 71.1667C87.3524 71.1667 88.1111 70.408 88.1111 69.4722C88.1111 68.5365 87.3524 67.7778 86.4167 67.7778C85.4809 67.7778 84.7222 68.5365 84.7222 69.4722C84.7222 70.408 85.4809 71.1667 86.4167 71.1667ZM105.056 69.4722C105.056 70.408 104.297 71.1667 103.361 71.1667C102.425 71.1667 101.667 70.408 101.667 69.4722C101.667 68.5365 102.425 67.7778 103.361 67.7778C104.297 67.7778 105.056 68.5365 105.056 69.4722ZM120.306 71.1667C121.241 71.1667 122 70.408 122 69.4722C122 68.5365 121.241 67.7778 120.306 67.7778C119.37 67.7778 118.611 68.5365 118.611 69.4722C118.611 70.408 119.37 71.1667 120.306 71.1667ZM3.38889 86.4167C3.38889 87.3524 2.6302 88.1111 1.69444 88.1111C0.758687 88.1111 0 87.3524 0 86.4167C0 85.4809 0.758687 84.7222 1.69444 84.7222C2.6302 84.7222 3.38889 85.4809 3.38889 86.4167ZM18.6389 88.1111C19.5746 88.1111 20.3333 87.3524 20.3333 86.4167C20.3333 85.4809 19.5746 84.7222 18.6389 84.7222C17.7031 84.7222 16.9444 85.4809 16.9444 86.4167C16.9444 87.3524 17.7031 88.1111 18.6389 88.1111ZM37.2778 86.4167C37.2778 87.3524 36.5191 88.1111 35.5833 88.1111C34.6476 88.1111 33.8889 87.3524 33.8889 86.4167C33.8889 85.4809 34.6476 84.7222 35.5833 84.7222C36.5191 84.7222 37.2778 85.4809 37.2778 86.4167ZM52.5278 88.1111C53.4635 88.1111 54.2222 87.3524 54.2222 86.4167C54.2222 85.4809 53.4635 84.7222 52.5278 84.7222C51.592 84.7222 50.8333 85.4809 50.8333 86.4167C50.8333 87.3524 51.592 88.1111 52.5278 88.1111ZM71.1667 86.4167C71.1667 87.3524 70.408 88.1111 69.4722 88.1111C68.5365 88.1111 67.7778 87.3524 67.7778 86.4167C67.7778 85.4809 68.5365 84.7222 69.4722 84.7222C70.408 84.7222 71.1667 85.4809 71.1667 86.4167ZM86.4167 88.1111C87.3524 88.1111 88.1111 87.3524 88.1111 86.4167C88.1111 85.4809 87.3524 84.7222 86.4167 84.7222C85.4809 84.7222 84.7222 85.4809 84.7222 86.4167C84.7222 87.3524 85.4809 88.1111 86.4167 88.1111ZM105.056 86.4167C105.056 87.3524 104.297 88.1111 103.361 88.1111C102.425 88.1111 101.667 87.3524 101.667 86.4167C101.667 85.4809 102.425 84.7222 103.361 84.7222C104.297 84.7222 105.056 85.4809 105.056 86.4167ZM120.306 88.1111C121.241 88.1111 122 87.3524 122 86.4167C122 85.4809 121.241 84.7222 120.306 84.7222C119.37 84.7222 118.611 85.4809 118.611 86.4167C118.611 87.3524 119.37 88.1111 120.306 88.1111ZM3.38889 103.361C3.38889 104.297 2.6302 105.056 1.69444 105.056C0.758687 105.056 0 104.297 0 103.361C0 102.425 0.758687 101.667 1.69444 101.667C2.6302 101.667 3.38889 102.425 3.38889 103.361ZM18.6389 105.056C19.5746 105.056 20.3333 104.297 20.3333 103.361C20.3333 102.425 19.5746 101.667 18.6389 101.667C17.7031 101.667 16.9444 102.425 16.9444 103.361C16.9444 104.297 17.7031 105.056 18.6389 105.056ZM37.2778 103.361C37.2778 104.297 36.5191 105.056 35.5833 105.056C34.6476 105.056 33.8889 104.297 33.8889 103.361C33.8889 102.425 34.6476 101.667 35.5833 101.667C36.5191 101.667 37.2778 102.425 37.2778 103.361ZM52.5278 105.056C53.4635 105.056 54.2222 104.297 54.2222 103.361C54.2222 102.425 53.4635 101.667 52.5278 101.667C51.592 101.667 50.8333 102.425 50.8333 103.361C50.8333 104.297 51.592 105.056 52.5278 105.056ZM71.1667 103.361C71.1667 104.297 70.408 105.056 69.4722 105.056C68.5365 105.056 67.7778 104.297 67.7778 103.361C67.7778 102.425 68.5365 101.667 69.4722 101.667C70.408 101.667 71.1667 102.425 71.1667 103.361ZM86.4167 105.056C87.3524 105.056 88.1111 104.297 88.1111 103.361C88.1111 102.425 87.3524 101.667 86.4167 101.667C85.4809 101.667 84.7222 102.425 84.7222 103.361C84.7222 104.297 85.4809 105.056 86.4167 105.056ZM105.056 103.361C105.056 104.297 104.297 105.056 103.361 105.056C102.425 105.056 101.667 104.297 101.667 103.361C101.667 102.425 102.425 101.667 103.361 101.667C104.297 101.667 105.056 102.425 105.056 103.361ZM120.306 105.056C121.241 105.056 122 104.297 122 103.361C122 102.425 121.241 101.667 120.306 101.667C119.37 101.667 118.611 102.425 118.611 103.361C118.611 104.297 119.37 105.056 120.306 105.056ZM3.38889 120.306C3.38889 121.241 2.6302 122 1.69444 122C0.758687 122 0 121.241 0 120.306C0 119.37 0.758687 118.611 1.69444 118.611C2.6302 118.611 3.38889 119.37 3.38889 120.306ZM18.6389 122C19.5746 122 20.3333 121.241 20.3333 120.306C20.3333 119.37 19.5746 118.611 18.6389 118.611C17.7031 118.611 16.9444 119.37 16.9444 120.306C16.9444 121.241 17.7031 122 18.6389 122ZM37.2778 120.306C37.2778 121.241 36.5191 122 35.5833 122C34.6476 122 33.8889 121.241 33.8889 120.306C33.8889 119.37 34.6476 118.611 35.5833 118.611C36.5191 118.611 37.2778 119.37 37.2778 120.306ZM52.5278 122C53.4635 122 54.2222 121.241 54.2222 120.306C54.2222 119.37 53.4635 118.611 52.5278 118.611C51.592 118.611 50.8333 119.37 50.8333 120.306C50.8333 121.241 51.592 122 52.5278 122ZM71.1667 120.306C71.1667 121.241 70.408 122 69.4722 122C68.5365 122 67.7778 121.241 67.7778 120.306C67.7778 119.37 68.5365 118.611 69.4722 118.611C70.408 118.611 71.1667 119.37 71.1667 120.306ZM86.4167 122C87.3524 122 88.1111 121.241 88.1111 120.306C88.1111 119.37 87.3524 118.611 86.4167 118.611C85.4809 118.611 84.7222 119.37 84.7222 120.306C84.7222 121.241 85.4809 122 86.4167 122ZM105.056 120.306C105.056 121.241 104.297 122 103.361 122C102.425 122 101.667 121.241 101.667 120.306C101.667 119.37 102.425 118.611 103.361 118.611C104.297 118.611 105.056 119.37 105.056 120.306ZM120.306 122C121.241 122 122 121.241 122 120.306C122 119.37 121.241 118.611 120.306 118.611C119.37 118.611 118.611 119.37 118.611 120.306C118.611 121.241 119.37 122 120.306 122Z" fill="white"/>
</svg>
